<svg xmlns="http://www.w3.org/2000/svg" viewBox="0 0 400 400">
  <!-- Watch body -->
  <circle cx="200" cy="200" r="190" fill="#dddddd" stroke="#000000" stroke-width="2"/>
  
  <!-- Wide dial -->
  <circle cx="200" cy="200" r="190" fill="none" stroke="#333333" stroke-width="70"/>
  
  <!-- Main circular LCD (smaller) -->
  <circle cx="200" cy="200" r="100" fill="#87CEEB" stroke="#000000" stroke-width="2"/>
  
  <!-- Small center LCD (larger text) -->
  <rect x="140" y="170" width="120" height="60" rx="5" fill="#FFFFFF" stroke="#000000" stroke-width="1"/>
  <text x="200" y="205" font-family="Arial" font-size="24" font-weight="bold" text-anchor="middle">12:34</text>
  <text x="200" y="225" font-family="Arial" font-size="14" text-anchor="middle">Hello, User!</text>
  
  <!-- Sensors and buttons on the dial -->
  <circle cx="200" cy="45" r="25" fill="#ff0000" stroke="#000000" stroke-width="2"/>
  <text x="200" y="50" font-family="Arial" font-size="16" text-anchor="middle" fill="white">HR</text>
  
  <circle cx="305" cy="95" r="25" fill="#00ff00" stroke="#000000" stroke-width="2"/>
  <text x="305" y="100" font-family="Arial" font-size="16" text-anchor="middle" fill="white">SpO2</text>
  
  <circle cx="355" cy="200" r="25" fill="#0000ff" stroke="#000000" stroke-width="2"/>
  <text x="355" y="205" font-family="Arial" font-size="16" text-anchor="middle" fill="white">Temp</text>
  
  <circle cx="305" cy="305" r="25" fill="#ffff00" stroke="#000000" stroke-width="2"/>
  <text x="305" y="310" font-family="Arial" font-size="16" text-anchor="middle">CO2</text>
  
  <circle cx="200" cy="355" r="25" fill="#ff00ff" stroke="#000000" stroke-width="2"/>
  <text x="200" y="360" font-family="Arial" font-size="16" text-anchor="middle">Rad</text>
  
  <circle cx="95" cy="305" r="25" fill="#888888" stroke="#000000" stroke-width="2"/>
  <text x="95" y="310" font-family="Arial" font-size="16" text-anchor="middle" fill="white">Btn1</text>
  
  <circle cx="45" cy="200" r="25" fill="#888888" stroke="#000000" stroke-width="2"/>
  <text x="45" y="205" font-family="Arial" font-size="16" text-anchor="middle" fill="white">Btn2</text>
  
  <circle cx="95" cy="95" r="25" fill="#888888" stroke="#000000" stroke-width="2"/>
  <text x="95" y="100" font-family="Arial" font-size="16" text-anchor="middle" fill="white">Btn3</text>
  
  <!-- Strap indicators -->
  <path d="M200 390 V400" stroke="#000000" stroke-width="4"/>
  <path d="M200 10 V0" stroke="#000000" stroke-width="4"/>
</svg>
