<svg xmlns="http://www.w3.org/2000/svg" viewBox="0 0 400 400">
  <!-- Watch body -->
  <circle cx="200" cy="200" r="190" fill="#dddddd" stroke="#000000" stroke-width="2"/>
  
  <!-- Main circular LCD -->
  <circle cx="200" cy="200" r="130" fill="#87CEEB" stroke="#000000" stroke-width="2"/>
  
  <!-- Wide dial -->
  <circle cx="200" cy="200" r="190" fill="none" stroke="#333333" stroke-width="60"/>
  
  <!-- Small center LCD -->
  <rect x="150" y="180" width="100" height="40" rx="5" fill="#FFFFFF" stroke="#000000" stroke-width="1"/>
  <text x="200" y="205" font-family="Arial" font-size="16" text-anchor="middle">12:34</text>
  <text x="200" y="215" font-family="Arial" font-size="10" text-anchor="middle">Hello, User!</text>
  
  <!-- Sensors and buttons on the dial -->
  <circle cx="200" cy="40" r="20" fill="#ff0000" stroke="#000000" stroke-width="2"/>
  <text x="200" y="45" font-family="Arial" font-size="14" text-anchor="middle" fill="white">HR</text>
  
  <circle cx="310" cy="90" r="20" fill="#00ff00" stroke="#000000" stroke-width="2"/>
  <text x="310" y="95" font-family="Arial" font-size="14" text-anchor="middle" fill="white">SpO2</text>
  
  <circle cx="360" cy="200" r="20" fill="#0000ff" stroke="#000000" stroke-width="2"/>
  <text x="360" y="205" font-family="Arial" font-size="14" text-anchor="middle" fill="white">Temp</text>
  
  <circle cx="310" cy="310" r="20" fill="#ffff00" stroke="#000000" stroke-width="2"/>
  <text x="310" y="315" font-family="Arial" font-size="14" text-anchor="middle">CO2</text>
  
  <circle cx="200" cy="360" r="20" fill="#ff00ff" stroke="#000000" stroke-width="2"/>
  <text x="200" y="365" font-family="Arial" font-size="14" text-anchor="middle">Rad</text>
  
  <circle cx="90" cy="310" r="20" fill="#888888" stroke="#000000" stroke-width="2"/>
  <text x="90" y="315" font-family="Arial" font-size="14" text-anchor="middle" fill="white">Btn1</text>
  
  <circle cx="40" cy="200" r="20" fill="#888888" stroke="#000000" stroke-width="2"/>
  <text x="40" y="205" font-family="Arial" font-size="14" text-anchor="middle" fill="white">Btn2</text>
  
  <circle cx="90" cy="90" r="20" fill="#888888" stroke="#000000" stroke-width="2"/>
  <text x="90" y="95" font-family="Arial" font-size="14" text-anchor="middle" fill="white">Btn3</text>
  
  <!-- Strap indicators -->
  <path d="M200 390 V400" stroke="#000000" stroke-width="4"/>
  <path d="M200 10 V0" stroke="#000000" stroke-width="4"/>
</svg>
